<svg xmlns="http://www.w3.org/2000/svg" xmlns:xlink="http://www.w3.org/1999/xlink" width="500" zoomAndPan="magnify" viewBox="0 0 375 374.999991" height="500" preserveAspectRatio="xMidYMid meet" version="1.0"><defs><g/><clipPath id="e5574447f6"><path d="M 7.40625 49.425781 L 326.390625 49.425781 L 326.390625 315.5 L 7.40625 315.5 Z M 7.40625 49.425781 " clip-rule="nonzero"/></clipPath></defs><g fill="#858c95" fill-opacity="1"><g transform="translate(37.382985, 328.23506)"><g><path d="M 45.59375 19.6875 C 38.75 19.6875 32.539062 18.722656 26.96875 16.796875 C 21.40625 14.878906 16.625 12.207031 12.625 8.78125 C 8.632812 5.351562 5.53125 1.320312 3.3125 -3.3125 C 1.101562 -7.957031 0 -12.988281 0 -18.40625 C 0 -30.820312 4.316406 -40.5625 12.953125 -47.625 C 21.585938 -54.695312 33.46875 -58.234375 48.59375 -58.234375 C 59.4375 -58.234375 69.351562 -56.769531 78.34375 -53.84375 C 87.34375 -50.914062 95.691406 -47.164062 103.390625 -42.59375 C 105.253906 -50.164062 106.1875 -58.734375 106.1875 -68.296875 C 106.1875 -78.140625 105.753906 -87.804688 104.890625 -97.296875 C 104.035156 -106.785156 103.070312 -116.203125 102 -125.546875 C 100.9375 -134.898438 99.972656 -144.144531 99.109375 -153.28125 C 98.253906 -162.414062 97.828125 -171.546875 97.828125 -180.671875 C 97.828125 -201.222656 99.820312 -219.023438 103.8125 -234.078125 C 107.8125 -249.140625 113.054688 -261.953125 119.546875 -272.515625 C 126.046875 -283.078125 133.46875 -291.640625 141.8125 -298.203125 C 150.164062 -304.765625 158.695312 -309.898438 167.40625 -313.609375 C 176.113281 -317.328125 184.640625 -319.828125 192.984375 -321.109375 C 201.335938 -322.390625 208.796875 -323.03125 215.359375 -323.03125 C 225.203125 -323.03125 234.082031 -321.390625 242 -318.109375 C 249.925781 -314.828125 256.707031 -310.472656 262.34375 -305.046875 C 267.976562 -299.628906 272.296875 -293.457031 275.296875 -286.53125 C 278.296875 -279.613281 279.796875 -272.515625 279.796875 -265.234375 C 279.796875 -258.671875 279.007812 -252.460938 277.4375 -246.609375 C 275.863281 -240.753906 274.113281 -235.578125 272.1875 -231.078125 C 270.257812 -226.585938 268.441406 -222.988281 266.734375 -220.28125 C 265.023438 -217.570312 264.097656 -216.070312 263.953125 -215.78125 L 257.3125 -220.5 C 259.882812 -224.351562 262.238281 -228.632812 264.375 -233.34375 C 266.09375 -237.332031 267.695312 -241.894531 269.1875 -247.03125 C 270.6875 -252.175781 271.4375 -257.675781 271.4375 -263.53125 C 271.4375 -270.664062 270.117188 -277.335938 267.484375 -283.546875 C 264.847656 -289.753906 261.140625 -295.175781 256.359375 -299.8125 C 251.578125 -304.445312 245.757812 -308.082031 238.90625 -310.71875 C 232.050781 -313.363281 224.34375 -314.6875 215.78125 -314.6875 C 200.800781 -314.6875 187.457031 -311.582031 175.75 -305.375 C 164.050781 -299.164062 154.203125 -291.101562 146.203125 -281.1875 C 138.210938 -271.269531 132.148438 -260.132812 128.015625 -247.78125 C 123.878906 -235.4375 121.8125 -223.128906 121.8125 -210.859375 C 121.8125 -202.722656 122.164062 -194.226562 122.875 -185.375 C 123.59375 -176.53125 124.34375 -167.4375 125.125 -158.09375 C 125.90625 -148.75 126.648438 -139.222656 127.359375 -129.515625 C 128.078125 -119.804688 128.4375 -110.101562 128.4375 -100.40625 C 128.4375 -87.414062 127.546875 -75.316406 125.765625 -64.109375 C 123.984375 -52.910156 121.238281 -42.671875 117.53125 -33.390625 C 125.375 -27.546875 133.003906 -21.484375 140.421875 -15.203125 C 147.847656 -8.921875 155.445312 -3.140625 163.21875 2.140625 C 171 7.421875 179.207031 11.738281 187.84375 15.09375 C 196.476562 18.445312 205.9375 20.125 216.21875 20.125 C 229.488281 20.125 241.648438 17.304688 252.703125 11.671875 C 263.765625 6.035156 273.289062 -1.273438 281.28125 -10.265625 C 289.28125 -19.265625 295.488281 -29.328125 299.90625 -40.453125 C 304.332031 -51.585938 306.546875 -62.648438 306.546875 -73.640625 C 306.546875 -77.640625 305.972656 -82.347656 304.828125 -87.765625 C 303.691406 -93.191406 301.625 -98.117188 298.625 -102.546875 L 303.765625 -106.609375 C 303.910156 -106.328125 304.910156 -105.003906 306.765625 -102.640625 C 308.617188 -100.285156 310.613281 -97.003906 312.75 -92.796875 C 314.894531 -88.585938 316.859375 -83.554688 318.640625 -77.703125 C 320.429688 -71.859375 321.328125 -65.222656 321.328125 -57.796875 C 321.328125 -47.234375 319.398438 -36.78125 315.546875 -26.4375 C 311.691406 -16.09375 305.765625 -6.816406 297.765625 1.390625 C 289.773438 9.597656 279.609375 16.234375 267.265625 21.296875 C 254.921875 26.367188 240.332031 28.90625 223.5 28.90625 C 210.21875 28.90625 198.507812 27.15625 188.375 23.65625 C 178.25 20.15625 169.007812 15.691406 160.65625 10.265625 C 152.3125 4.847656 144.460938 -1.066406 137.109375 -7.484375 C 129.765625 -13.910156 122.238281 -20.050781 114.53125 -25.90625 C 107.675781 -11.632812 98.578125 -0.46875 87.234375 7.59375 C 75.890625 15.65625 62.007812 19.6875 45.59375 19.6875 Z M 48.171875 11.34375 C 62.015625 11.34375 73.394531 7.207031 82.3125 -1.0625 C 91.226562 -9.34375 97.6875 -20.550781 101.6875 -34.6875 C 94.40625 -39.101562 86.550781 -42.738281 78.125 -45.59375 C 69.707031 -48.445312 60.148438 -49.875 49.453125 -49.875 C 47.304688 -49.875 44.414062 -49.515625 40.78125 -48.796875 C 37.144531 -48.085938 33.578125 -46.660156 30.078125 -44.515625 C 26.578125 -42.378906 23.539062 -39.273438 20.96875 -35.203125 C 18.40625 -31.140625 17.125 -25.6875 17.125 -18.84375 C 17.125 -14.269531 17.941406 -10.164062 19.578125 -6.53125 C 21.222656 -2.894531 23.4375 0.273438 26.21875 2.984375 C 29 5.703125 32.28125 7.773438 36.0625 9.203125 C 39.851562 10.628906 43.890625 11.34375 48.171875 11.34375 Z M 48.171875 11.34375 "/></g></g></g><g clip-path="url(#e5574447f6)"><path fill="#155e75" d="M 323.570312 124.523438 C 323.089844 124.183594 322.59375 123.875 322.09375 123.558594 C 321.84375 123.40625 321.597656 123.238281 321.347656 123.09375 L 320.578125 122.675781 C 319.554688 122.132812 318.507812 121.601562 317.445312 121.089844 C 316.914062 120.832031 316.378906 120.5625 315.835938 120.335938 C 315.292969 120.125 314.746094 119.90625 314.195312 119.707031 C 313.09375 119.296875 311.976562 118.886719 310.84375 118.503906 C 309.710938 118.101562 308.570312 117.863281 307.414062 117.554688 C 306.257812 117.261719 305.085938 116.972656 303.910156 116.734375 C 302.738281 116.53125 301.554688 116.367188 300.363281 116.1875 C 295.589844 115.488281 290.746094 115.425781 285.886719 115.695312 C 285.269531 115.710938 284.671875 115.78125 284.074219 115.84375 C 283.46875 115.898438 282.863281 115.972656 282.265625 116.042969 C 281.058594 116.191406 279.84375 116.332031 278.628906 116.496094 L 275.054688 117.191406 C 274.457031 117.308594 273.855469 117.425781 273.261719 117.5625 C 272.664062 117.683594 272.0625 117.816406 271.484375 117.984375 C 262.023438 120.359375 253 124.367188 244.757812 129.527344 C 236.515625 134.695312 229.058594 141.042969 222.605469 148.230469 C 222.386719 148.476562 222.167969 148.722656 221.953125 148.96875 C 220.589844 146.414062 219.089844 143.902344 217.410156 141.464844 C 214.710938 137.558594 211.621094 133.808594 208.089844 130.433594 C 204.570312 127.046875 200.625 124.03125 196.386719 121.523438 C 194.273438 120.253906 192.066406 119.148438 189.824219 118.164062 C 187.582031 117.183594 185.296875 116.324219 182.964844 115.640625 C 180.644531 114.945312 178.292969 114.394531 175.945312 113.972656 C 173.59375 113.558594 171.230469 113.308594 168.890625 113.164062 C 166.546875 113.023438 164.214844 113.03125 161.914062 113.15625 C 159.613281 113.285156 157.335938 113.515625 155.097656 113.898438 C 146.144531 115.359375 137.8125 118.617188 130.539062 123.214844 C 123.273438 127.8125 117.015625 133.789062 112.464844 140.75 C 110.199219 144.230469 108.359375 147.941406 107.113281 151.792969 C 106.496094 153.714844 106 155.65625 105.695312 157.617188 C 105.539062 158.59375 105.425781 159.570312 105.339844 160.542969 C 105.273438 161.519531 105.234375 162.488281 105.257812 163.457031 C 109.296875 156.878906 114.484375 151.878906 120.175781 148.113281 C 125.863281 144.351562 132.054688 141.796875 138.269531 140.265625 C 144.484375 138.742188 150.75 138.28125 156.589844 138.851562 C 158.050781 138.996094 159.484375 139.203125 160.882812 139.46875 C 162.28125 139.738281 163.644531 140.085938 164.96875 140.464844 C 166.289062 140.859375 167.574219 141.3125 168.800781 141.828125 C 170.039062 142.332031 171.230469 142.890625 172.371094 143.523438 C 176.945312 145.996094 180.691406 149.320312 183.820312 153.320312 C 186.917969 157.355469 189.425781 162.101562 191.308594 167.460938 C 192.285156 170.117188 193.078125 172.949219 193.75 175.835938 C 194.097656 177.265625 194.375 178.695312 194.628906 180.117188 C 194.730469 180.828125 194.867188 181.539062 194.945312 182.246094 L 195.101562 183.3125 L 195.222656 184.367188 C 195.558594 187.191406 195.613281 189.992188 195.585938 192.769531 C 195.519531 195.546875 195.246094 198.296875 194.8125 201.042969 C 194.390625 203.789062 193.703125 206.507812 192.914062 209.234375 C 192.507812 210.589844 192.039062 211.949219 191.546875 213.296875 C 191.015625 214.644531 190.503906 216.007812 189.90625 217.351562 C 189.308594 218.695312 188.691406 220.039062 187.996094 221.371094 C 187.320312 222.710938 186.617188 224.050781 185.851562 225.375 C 185.105469 226.707031 184.289062 228.019531 183.460938 229.335938 C 182.902344 230.234375 182.308594 231.128906 181.710938 232.019531 C 181.484375 232.222656 181.261719 232.429688 181.039062 232.632812 L 179.523438 234.039062 L 177.960938 235.398438 C 177.4375 235.84375 176.9375 236.316406 176.390625 236.738281 L 174.785156 238.035156 L 173.984375 238.6875 C 173.71875 238.90625 173.4375 239.105469 173.167969 239.3125 L 171.519531 240.558594 C 162.695312 247.125 152.894531 252.277344 142.546875 255.988281 C 132.195312 259.695312 121.285156 261.972656 110.125 262.84375 C 108.730469 263 107.328125 263.027344 105.925781 263.113281 C 105.226562 263.144531 104.527344 263.203125 103.824219 263.226562 L 101.710938 263.269531 L 99.597656 263.316406 C 99.246094 263.328125 98.894531 263.328125 98.539062 263.320312 L 97.476562 263.304688 L 95.355469 263.289062 C 94.648438 263.277344 93.9375 263.285156 93.230469 263.238281 C 91.8125 263.167969 90.394531 263.113281 88.96875 263.058594 L 84.699219 262.738281 C 83.269531 262.664062 81.851562 262.46875 80.421875 262.324219 L 78.277344 262.101562 C 77.5625 262.027344 76.851562 261.914062 76.140625 261.820312 C 64.703125 260.351562 53.253906 257.769531 41.8125 254.546875 L 37.535156 253.273438 C 36.816406 253.0625 36.097656 252.859375 35.382812 252.640625 L 33.25 251.957031 L 28.953125 250.601562 L 24.671875 249.15625 L 22.519531 248.433594 C 21.800781 248.203125 21.097656 247.925781 20.378906 247.683594 L 16.082031 246.167969 C 14.625 245.695312 13.21875 245.125 11.773438 244.613281 C 10.335938 244.09375 8.890625 243.574219 7.421875 243.082031 C 8.578125 244.097656 9.761719 245.082031 10.945312 246.070312 C 11.535156 246.566406 12.136719 247.046875 12.734375 247.535156 C 13.328125 248.027344 13.9375 248.492188 14.550781 248.964844 C 17.011719 250.800781 19.460938 252.703125 22.035156 254.402344 C 23.3125 255.273438 24.582031 256.15625 25.878906 257.007812 C 27.183594 257.832031 28.5 258.648438 29.816406 259.464844 L 31.800781 260.683594 C 32.472656 261.082031 33.148438 261.457031 33.820312 261.84375 L 37.890625 264.132812 C 39.261719 264.867188 40.65625 265.558594 42.046875 266.273438 L 44.136719 267.335938 C 44.839844 267.679688 45.550781 268 46.257812 268.332031 C 47.675781 268.996094 49.105469 269.636719 50.535156 270.289062 C 51.980469 270.894531 53.429688 271.496094 54.886719 272.089844 C 55.617188 272.382812 56.339844 272.699219 57.078125 272.96875 L 59.296875 273.78125 L 61.523438 274.589844 L 62.640625 274.992188 C 63.011719 275.125 63.390625 275.242188 63.765625 275.363281 L 68.292969 276.800781 C 69.050781 277.050781 69.820312 277.242188 70.585938 277.457031 L 72.886719 278.082031 C 79.039062 279.699219 85.320312 281.003906 91.710938 281.785156 C 92.507812 281.90625 93.3125 281.976562 94.113281 282.058594 L 96.519531 282.300781 C 98.125 282.488281 99.738281 282.550781 101.355469 282.644531 L 103.78125 282.777344 C 104.589844 282.804688 105.402344 282.816406 106.214844 282.824219 C 107.835938 282.835938 109.460938 282.890625 111.089844 282.816406 C 118.382812 282.691406 125.710938 281.910156 132.933594 280.460938 C 128.90625 283.589844 124.804688 286.679688 120.632812 289.742188 C 114.746094 294.058594 108.738281 298.324219 102.621094 302.566406 C 96.507812 306.824219 90.304688 311.050781 83.972656 315.378906 C 84.9375 315.34375 85.890625 315.257812 86.851562 315.179688 C 87.804688 315.089844 88.757812 314.984375 89.714844 314.878906 C 91.621094 314.667969 93.515625 314.398438 95.410156 314.105469 C 99.195312 313.515625 102.957031 312.792969 106.699219 311.976562 C 114.175781 310.316406 121.574219 308.253906 128.871094 305.8125 C 143.460938 300.902344 157.699219 294.511719 171.242188 286.261719 C 172.929688 285.222656 174.613281 284.167969 176.285156 283.078125 C 177.953125 281.984375 179.601562 280.851562 181.242188 279.695312 C 184.535156 277.398438 187.726562 274.914062 190.894531 272.339844 C 197.164062 267.128906 203.183594 261.371094 208.652344 254.855469 C 210.011719 253.222656 211.363281 251.570312 212.660156 249.84375 C 213.953125 248.128906 215.207031 246.359375 216.414062 244.542969 C 218.851562 240.933594 221.074219 237.105469 223.074219 233.105469 C 224.074219 231.105469 225.023438 229.058594 225.882812 226.96875 C 226.738281 224.875 227.539062 222.742188 228.261719 220.574219 C 229.722656 216.238281 230.832031 211.746094 231.605469 207.175781 C 231.8125 206.035156 231.964844 204.886719 232.132812 203.738281 C 232.210938 203.167969 232.265625 202.589844 232.332031 202.011719 C 232.398438 201.4375 232.457031 200.859375 232.496094 200.277344 L 232.503906 200.230469 C 232.8125 196.890625 233.957031 193.679688 235.898438 190.945312 C 236.140625 190.609375 236.382812 190.273438 236.625 189.933594 C 240.894531 184.019531 245.410156 178.414062 250.191406 173.105469 C 259.785156 162.507812 270.402344 153.097656 282.558594 145.0625 C 288.652344 141.042969 295.164062 137.457031 302.332031 134.351562 C 303.230469 133.960938 304.140625 133.582031 305.054688 133.167969 C 305.976562 132.789062 306.90625 132.492188 307.847656 132.113281 L 309.273438 131.566406 C 309.753906 131.386719 310.234375 131.175781 310.714844 131.042969 C 311.683594 130.738281 312.664062 130.410156 313.660156 130.078125 L 315.171875 129.566406 C 315.675781 129.414062 316.183594 129.292969 316.695312 129.144531 C 317.71875 128.859375 318.757812 128.558594 319.824219 128.25 C 320.894531 127.878906 321.949219 127.726562 323.042969 127.429688 C 324.140625 127.160156 325.257812 126.882812 326.40625 126.550781 C 325.492188 125.835938 324.539062 125.175781 323.570312 124.523438 Z M 261.691406 81.300781 C 261.691406 98.84375 247.480469 113.058594 229.945312 113.058594 C 212.414062 113.058594 198.203125 98.84375 198.203125 81.300781 C 198.203125 63.765625 212.414062 49.546875 229.945312 49.546875 C 247.480469 49.546875 261.691406 63.765625 261.691406 81.300781 " fill-opacity="1" fill-rule="nonzero"/></g></svg>