<svg xmlns="http://www.w3.org/2000/svg" xmlns:xlink="http://www.w3.org/1999/xlink" width="3000" zoomAndPan="magnify" viewBox="0 0 2250 675.000002" height="900" preserveAspectRatio="xMidYMid meet" version="1.0"><defs><g/><clipPath id="f096bb6e04"><path d="M 13.335938 111.617188 L 556.113281 111.617188 L 556.113281 563.726562 L 13.335938 563.726562 Z M 13.335938 111.617188 " clip-rule="nonzero"/></clipPath></defs><g fill="#858c95" fill-opacity="1"><g transform="translate(64.220847, 584.875846)"><g><path d="M 77.40625 33.4375 C 65.769531 33.4375 55.226562 31.800781 45.78125 28.53125 C 36.332031 25.257812 28.21875 20.710938 21.4375 14.890625 C 14.65625 9.078125 9.382812 2.238281 5.625 -5.625 C 1.875 -13.5 0 -22.039062 0 -31.25 C 0 -52.320312 7.328125 -68.851562 21.984375 -80.84375 C 36.640625 -92.84375 56.804688 -98.84375 82.484375 -98.84375 C 100.898438 -98.84375 117.738281 -96.359375 133 -91.390625 C 148.257812 -86.421875 162.429688 -80.0625 175.515625 -72.3125 C 178.660156 -85.15625 180.234375 -99.691406 180.234375 -115.921875 C 180.234375 -132.628906 179.503906 -149.039062 178.046875 -165.15625 C 176.597656 -181.269531 174.960938 -197.257812 173.140625 -213.125 C 171.328125 -228.988281 169.691406 -244.671875 168.234375 -260.171875 C 166.785156 -275.679688 166.0625 -291.1875 166.0625 -306.6875 C 166.0625 -341.570312 169.453125 -371.789062 176.234375 -397.34375 C 183.023438 -422.90625 191.929688 -444.648438 202.953125 -462.578125 C 213.972656 -480.503906 226.566406 -495.039062 240.734375 -506.1875 C 254.910156 -517.332031 269.382812 -526.050781 284.15625 -532.34375 C 298.9375 -538.644531 313.410156 -542.882812 327.578125 -545.0625 C 341.753906 -547.25 354.414062 -548.34375 365.5625 -548.34375 C 382.28125 -548.34375 397.359375 -545.554688 410.796875 -539.984375 C 424.242188 -534.410156 435.75 -527.019531 445.3125 -517.8125 C 454.882812 -508.613281 462.210938 -498.140625 467.296875 -486.390625 C 472.390625 -474.640625 474.9375 -462.585938 474.9375 -450.234375 C 474.9375 -439.085938 473.601562 -428.546875 470.9375 -418.609375 C 468.269531 -408.679688 465.300781 -399.898438 462.03125 -392.265625 C 458.757812 -384.640625 455.671875 -378.523438 452.765625 -373.921875 C 449.859375 -369.316406 448.285156 -366.769531 448.046875 -366.28125 L 436.78125 -374.28125 C 441.144531 -380.820312 445.144531 -388.085938 448.78125 -396.078125 C 451.6875 -402.867188 454.410156 -410.625 456.953125 -419.34375 C 459.492188 -428.0625 460.765625 -437.390625 460.765625 -447.328125 C 460.765625 -459.429688 458.523438 -470.753906 454.046875 -481.296875 C 449.566406 -491.835938 443.265625 -501.039062 435.140625 -508.90625 C 427.023438 -516.78125 417.15625 -522.957031 405.53125 -527.4375 C 393.90625 -531.925781 380.820312 -534.171875 366.28125 -534.171875 C 340.84375 -534.171875 318.191406 -528.898438 298.328125 -518.359375 C 278.460938 -507.828125 261.75 -494.140625 248.1875 -477.296875 C 234.625 -460.460938 224.328125 -441.566406 217.296875 -420.609375 C 210.273438 -399.660156 206.765625 -378.769531 206.765625 -357.9375 C 206.765625 -344.125 207.367188 -329.707031 208.578125 -314.6875 C 209.785156 -299.664062 211.054688 -284.222656 212.390625 -268.359375 C 213.722656 -252.492188 214.992188 -236.320312 216.203125 -219.84375 C 217.421875 -203.375 218.03125 -186.898438 218.03125 -170.421875 C 218.03125 -148.378906 216.515625 -127.847656 213.484375 -108.828125 C 210.453125 -89.816406 205.789062 -72.4375 199.5 -56.6875 C 212.820312 -46.75 225.78125 -36.453125 238.375 -25.796875 C 250.96875 -15.140625 263.863281 -5.332031 277.0625 3.625 C 290.269531 12.59375 304.203125 19.921875 318.859375 25.609375 C 333.515625 31.304688 349.566406 34.15625 367.015625 34.15625 C 389.546875 34.15625 410.195312 29.367188 428.96875 19.796875 C 447.738281 10.234375 463.90625 -2.175781 477.46875 -17.4375 C 491.039062 -32.695312 501.582031 -49.773438 509.09375 -68.671875 C 516.601562 -87.566406 520.359375 -106.34375 520.359375 -125 C 520.359375 -131.78125 519.390625 -139.773438 517.453125 -148.984375 C 515.515625 -158.191406 512.003906 -166.550781 506.921875 -174.0625 L 515.640625 -180.96875 C 515.878906 -180.476562 517.570312 -178.234375 520.71875 -174.234375 C 523.875 -170.242188 527.265625 -164.675781 530.890625 -157.53125 C 534.523438 -150.382812 537.859375 -141.84375 540.890625 -131.90625 C 543.921875 -121.976562 545.4375 -110.710938 545.4375 -98.109375 C 545.4375 -80.179688 542.164062 -62.4375 535.625 -44.875 C 529.082031 -27.3125 519.023438 -11.566406 505.453125 2.359375 C 491.890625 16.285156 474.628906 27.550781 453.671875 36.15625 C 432.722656 44.757812 407.957031 49.0625 379.375 49.0625 C 356.84375 49.0625 336.972656 46.09375 319.765625 40.15625 C 302.566406 34.21875 286.878906 26.644531 272.703125 17.4375 C 258.535156 8.238281 245.210938 -1.8125 232.734375 -12.71875 C 220.265625 -23.625 207.488281 -34.039062 194.40625 -43.96875 C 182.78125 -19.738281 167.335938 -0.78125 148.078125 12.90625 C 128.816406 26.59375 105.257812 33.4375 77.40625 33.4375 Z M 81.765625 19.265625 C 105.265625 19.265625 124.582031 12.238281 139.71875 -1.8125 C 154.863281 -15.863281 165.828125 -34.882812 172.609375 -58.875 C 160.253906 -66.375 146.925781 -72.546875 132.625 -77.390625 C 118.332031 -82.242188 102.101562 -84.671875 83.9375 -84.671875 C 80.300781 -84.671875 75.394531 -84.0625 69.21875 -82.84375 C 63.039062 -81.632812 56.984375 -79.210938 51.046875 -75.578125 C 45.117188 -71.941406 39.972656 -66.671875 35.609375 -59.765625 C 31.253906 -52.867188 29.078125 -43.609375 29.078125 -31.984375 C 29.078125 -24.222656 30.46875 -17.253906 33.25 -11.078125 C 36.03125 -4.898438 39.78125 0.484375 44.5 5.078125 C 49.226562 9.679688 54.800781 13.195312 61.21875 15.625 C 67.644531 18.050781 74.492188 19.265625 81.765625 19.265625 Z M 81.765625 19.265625 "/></g></g></g><g fill="#858c95" fill-opacity="1"><g transform="translate(556.01641, 392.625279)"><g><path d="M 83.34375 -192.328125 C 93.570312 -192.328125 103.570312 -190.835938 113.34375 -187.859375 C 123.113281 -184.890625 130.363281 -181.953125 135.09375 -179.046875 L 141.953125 -174.46875 L 124.5625 -140.125 C 123.1875 -141.039062 121.273438 -142.222656 118.828125 -143.671875 C 116.390625 -145.128906 111.8125 -147.078125 105.09375 -149.515625 C 98.375 -151.960938 92.117188 -153.1875 86.328125 -153.1875 C 79.148438 -153.1875 73.613281 -151.65625 69.71875 -148.59375 C 65.820312 -145.539062 63.875 -141.421875 63.875 -136.234375 C 63.875 -133.640625 64.789062 -131.234375 66.625 -129.015625 C 68.457031 -126.804688 71.585938 -124.441406 76.015625 -121.921875 C 80.441406 -119.398438 84.332031 -117.375 87.6875 -115.84375 C 91.050781 -114.320312 96.242188 -112.035156 103.265625 -108.984375 C 115.472656 -103.796875 125.890625 -96.738281 134.515625 -87.8125 C 143.140625 -78.882812 147.453125 -68.769531 147.453125 -57.46875 C 147.453125 -46.632812 145.503906 -37.171875 141.609375 -29.078125 C 137.722656 -20.984375 132.382812 -14.644531 125.59375 -10.0625 C 118.800781 -5.488281 111.28125 -2.097656 103.03125 0.109375 C 94.789062 2.328125 85.863281 3.4375 76.25 3.4375 C 68 3.4375 59.90625 2.59375 51.96875 0.90625 C 44.03125 -0.769531 37.390625 -2.863281 32.046875 -5.375 C 26.710938 -7.894531 21.90625 -10.375 17.625 -12.8125 C 13.351562 -15.257812 10.226562 -17.320312 8.25 -19 L 5.265625 -21.515625 L 26.796875 -57.703125 C 28.617188 -56.171875 31.132812 -54.222656 34.34375 -51.859375 C 37.550781 -49.492188 43.238281 -46.328125 51.40625 -42.359375 C 59.570312 -38.390625 66.785156 -36.40625 73.046875 -36.40625 C 91.203125 -36.40625 100.28125 -42.585938 100.28125 -54.953125 C 100.28125 -57.546875 99.628906 -59.945312 98.328125 -62.15625 C 97.035156 -64.375 94.75 -66.585938 91.46875 -68.796875 C 88.1875 -71.015625 85.285156 -72.769531 82.765625 -74.0625 C 80.253906 -75.363281 76.132812 -77.347656 70.40625 -80.015625 C 64.6875 -82.691406 60.453125 -84.71875 57.703125 -86.09375 C 46.253906 -91.738281 37.398438 -98.796875 31.140625 -107.265625 C 24.878906 -115.742188 21.75 -124.867188 21.75 -134.640625 C 21.75 -151.578125 28.003906 -165.425781 40.515625 -176.1875 C 53.035156 -186.945312 67.3125 -192.328125 83.34375 -192.328125 Z M 83.34375 -192.328125 "/></g></g></g><g fill="#858c95" fill-opacity="1"><g transform="translate(764.810191, 392.625279)"><g><path d="M 5.265625 -94.5625 C 5.265625 -121.882812 14.578125 -145.007812 33.203125 -163.9375 C 51.828125 -182.863281 74.265625 -192.328125 100.515625 -192.328125 C 126.921875 -192.328125 149.359375 -182.898438 167.828125 -164.046875 C 186.304688 -145.203125 195.546875 -122.039062 195.546875 -94.5625 C 195.546875 -66.9375 186.460938 -43.695312 168.296875 -24.84375 C 150.128906 -5.988281 127.535156 3.4375 100.515625 3.4375 C 72.890625 3.4375 50.109375 -5.910156 32.171875 -24.609375 C 14.234375 -43.304688 5.265625 -66.625 5.265625 -94.5625 Z M 51.75 -94.5625 C 51.75 -84.644531 53.273438 -75.601562 56.328125 -67.4375 C 59.378906 -59.269531 64.71875 -52.359375 72.34375 -46.703125 C 79.976562 -41.054688 89.367188 -38.234375 100.515625 -38.234375 C 116.546875 -38.234375 128.644531 -43.726562 136.8125 -54.71875 C 144.976562 -65.707031 149.0625 -78.988281 149.0625 -94.5625 C 149.0625 -109.976562 144.898438 -123.21875 136.578125 -134.28125 C 128.253906 -145.351562 116.234375 -150.890625 100.515625 -150.890625 C 84.941406 -150.890625 72.921875 -145.351562 64.453125 -134.28125 C 55.984375 -123.21875 51.75 -109.976562 51.75 -94.5625 Z M 51.75 -94.5625 "/></g></g></g><g fill="#858c95" fill-opacity="1"><g transform="translate(1020.530232, 392.625279)"><g><path d="M 56.78125 -188.90625 L 56.78125 -37.78125 L 121.8125 -37.78125 L 121.8125 0 L 13.734375 0 L 13.734375 -188.90625 Z M 56.78125 -188.90625 "/></g></g></g><g fill="#858c95" fill-opacity="1"><g transform="translate(1204.830745, 392.625279)"><g><path d="M 5.265625 -94.5625 C 5.265625 -121.882812 14.578125 -145.007812 33.203125 -163.9375 C 51.828125 -182.863281 74.265625 -192.328125 100.515625 -192.328125 C 126.921875 -192.328125 149.359375 -182.898438 167.828125 -164.046875 C 186.304688 -145.203125 195.546875 -122.039062 195.546875 -94.5625 C 195.546875 -66.9375 186.460938 -43.695312 168.296875 -24.84375 C 150.128906 -5.988281 127.535156 3.4375 100.515625 3.4375 C 72.890625 3.4375 50.109375 -5.910156 32.171875 -24.609375 C 14.234375 -43.304688 5.265625 -66.625 5.265625 -94.5625 Z M 51.75 -94.5625 C 51.75 -84.644531 53.273438 -75.601562 56.328125 -67.4375 C 59.378906 -59.269531 64.71875 -52.359375 72.34375 -46.703125 C 79.976562 -41.054688 89.367188 -38.234375 100.515625 -38.234375 C 116.546875 -38.234375 128.644531 -43.726562 136.8125 -54.71875 C 144.976562 -65.707031 149.0625 -78.988281 149.0625 -94.5625 C 149.0625 -109.976562 144.898438 -123.21875 136.578125 -134.28125 C 128.253906 -145.351562 116.234375 -150.890625 100.515625 -150.890625 C 84.941406 -150.890625 72.921875 -145.351562 64.453125 -134.28125 C 55.984375 -123.21875 51.75 -109.976562 51.75 -94.5625 Z M 51.75 -94.5625 "/></g></g></g><g fill="#155e75" fill-opacity="1"><g transform="translate(1460.526458, 392.625279)"><g><path d="M 56.78125 -188.90625 L 56.78125 -37.78125 L 121.8125 -37.78125 L 121.8125 0 L 13.734375 0 L 13.734375 -188.90625 Z M 56.78125 -188.90625 "/></g></g></g><g fill="#155e75" fill-opacity="1"><g transform="translate(1644.826971, 392.625279)"><g><path d="M 121.8125 -188.90625 L 121.8125 -151.125 L 56.78125 -151.125 L 56.78125 -113.5625 L 119.0625 -113.5625 L 119.0625 -75.78125 L 56.78125 -75.78125 L 56.78125 -37.78125 L 121.8125 -37.78125 L 121.8125 0 L 13.734375 0 L 13.734375 -188.90625 Z M 121.8125 -188.90625 "/></g></g></g><g fill="#155e75" fill-opacity="1"><g transform="translate(1832.561076, 392.625279)"><g><path d="M 109.671875 -188.90625 L 185.921875 0 L 139.671875 0 L 125.703125 -37.78125 L 53.8125 -37.78125 L 39.84375 0 L -6.40625 0 L 69.828125 -188.90625 Z M 111.046875 -75.5625 L 89.984375 -130.515625 L 89.53125 -130.515625 L 68.46875 -75.5625 Z M 111.046875 -75.5625 "/></g></g></g><g fill="#155e75" fill-opacity="1"><g transform="translate(2066.9926, 392.625279)"><g><path d="M 13.734375 -188.90625 L 82.65625 -188.90625 C 101.894531 -188.90625 117.46875 -183.941406 129.375 -174.015625 C 141.28125 -164.097656 147.234375 -149.671875 147.234375 -130.734375 C 147.234375 -111.804688 141.203125 -96.960938 129.140625 -86.203125 C 117.078125 -75.441406 101.582031 -70.0625 82.65625 -70.0625 L 56.78125 -70.0625 L 56.78125 0 L 13.734375 0 Z M 56.78125 -104.40625 L 68.921875 -104.40625 C 78.535156 -104.40625 86.429688 -106.351562 92.609375 -110.25 C 98.796875 -114.144531 101.890625 -120.519531 101.890625 -129.375 C 101.890625 -138.375 98.796875 -144.816406 92.609375 -148.703125 C 86.429688 -152.597656 78.535156 -154.546875 68.921875 -154.546875 L 56.78125 -154.546875 Z M 56.78125 -104.40625 "/></g></g></g><g clip-path="url(#f096bb6e04)"><path fill="#155e75" d="M 551.320312 239.21875 C 550.5 238.644531 549.65625 238.121094 548.808594 237.585938 C 548.382812 237.324219 547.960938 237.042969 547.535156 236.792969 L 546.230469 236.082031 C 544.488281 235.160156 542.703125 234.257812 540.894531 233.386719 C 539.992188 232.949219 539.082031 232.496094 538.160156 232.109375 C 537.230469 231.75 536.304688 231.378906 535.367188 231.035156 C 533.492188 230.34375 531.589844 229.644531 529.660156 228.996094 C 527.734375 228.3125 525.792969 227.910156 523.828125 227.382812 C 521.859375 226.882812 519.863281 226.394531 517.867188 225.988281 C 515.871094 225.644531 513.859375 225.363281 511.828125 225.058594 C 503.707031 223.871094 495.464844 223.765625 487.195312 224.21875 C 486.144531 224.25 485.132812 224.367188 484.109375 224.472656 C 483.082031 224.566406 482.054688 224.691406 481.035156 224.8125 C 478.980469 225.066406 476.917969 225.304688 474.851562 225.582031 L 468.769531 226.765625 C 467.746094 226.96875 466.726562 227.167969 465.714844 227.394531 C 464.695312 227.605469 463.671875 227.824219 462.6875 228.113281 C 446.589844 232.148438 431.234375 238.960938 417.214844 247.726562 C 403.1875 256.507812 390.496094 267.292969 379.515625 279.507812 C 379.144531 279.921875 378.773438 280.34375 378.40625 280.757812 C 376.085938 276.421875 373.53125 272.152344 370.675781 268.011719 C 366.085938 261.371094 360.828125 255 354.816406 249.269531 C 348.828125 243.511719 342.117188 238.382812 334.902344 234.125 C 331.3125 231.96875 327.554688 230.09375 323.738281 228.417969 C 319.921875 226.75 316.03125 225.289062 312.066406 224.128906 C 308.117188 222.945312 304.121094 222.015625 300.125 221.296875 C 296.121094 220.59375 292.101562 220.167969 288.117188 219.921875 C 284.132812 219.679688 280.164062 219.695312 276.246094 219.90625 C 272.328125 220.128906 268.453125 220.515625 264.648438 221.167969 C 249.414062 223.652344 235.234375 229.183594 222.859375 237.003906 C 210.492188 244.816406 199.851562 254.96875 192.101562 266.796875 C 188.25 272.707031 185.117188 279.015625 182.996094 285.554688 C 181.945312 288.828125 181.105469 292.125 180.585938 295.453125 C 180.316406 297.113281 180.125 298.773438 179.980469 300.425781 C 179.871094 302.085938 179.804688 303.730469 179.835938 305.378906 C 186.714844 294.199219 195.539062 285.707031 205.222656 279.304688 C 214.90625 272.914062 225.441406 268.578125 236.015625 265.976562 C 246.589844 263.386719 257.25 262.597656 267.1875 263.570312 C 269.675781 263.816406 272.109375 264.167969 274.488281 264.617188 C 276.871094 265.074219 279.1875 265.667969 281.441406 266.3125 C 283.691406 266.980469 285.875 267.75 287.96875 268.625 C 290.070312 269.484375 292.101562 270.433594 294.039062 271.503906 C 301.820312 275.707031 308.199219 281.359375 313.519531 288.15625 C 318.789062 295.007812 323.0625 303.078125 326.265625 312.183594 C 327.925781 316.695312 329.273438 321.511719 330.417969 326.410156 C 331.011719 328.839844 331.484375 331.269531 331.910156 333.683594 C 332.089844 334.894531 332.320312 336.105469 332.457031 337.308594 L 332.714844 339.117188 L 332.921875 340.910156 C 333.5 345.707031 333.585938 350.464844 333.542969 355.183594 C 333.429688 359.902344 332.964844 364.578125 332.226562 369.242188 C 331.503906 373.910156 330.339844 378.527344 328.996094 383.160156 C 328.304688 385.464844 327.511719 387.773438 326.667969 390.066406 C 325.765625 392.351562 324.894531 394.667969 323.878906 396.953125 C 322.863281 399.238281 321.808594 401.523438 320.625 403.785156 C 319.476562 406.058594 318.285156 408.339844 316.980469 410.589844 C 315.707031 412.851562 314.320312 415.082031 312.910156 417.316406 C 311.960938 418.847656 310.953125 420.367188 309.929688 421.878906 C 309.550781 422.222656 309.164062 422.574219 308.789062 422.921875 L 306.210938 425.3125 L 303.554688 427.621094 C 302.660156 428.378906 301.8125 429.175781 300.882812 429.898438 L 298.148438 432.097656 L 296.789062 433.207031 C 296.332031 433.582031 295.855469 433.917969 295.394531 434.273438 L 292.59375 436.386719 C 277.574219 447.542969 260.894531 456.296875 243.289062 462.601562 C 225.675781 468.902344 207.109375 472.777344 188.121094 474.25 C 185.753906 474.519531 183.363281 474.566406 180.980469 474.714844 C 179.789062 474.761719 178.59375 474.863281 177.398438 474.90625 L 173.804688 474.980469 L 170.210938 475.058594 C 169.609375 475.078125 169.011719 475.078125 168.40625 475.0625 L 166.601562 475.039062 L 162.992188 475.007812 C 161.789062 474.992188 160.582031 475 159.375 474.921875 C 156.964844 474.800781 154.546875 474.714844 152.125 474.617188 L 144.859375 474.074219 C 142.429688 473.949219 140.011719 473.613281 137.582031 473.371094 L 133.933594 472.992188 C 132.71875 472.867188 131.507812 472.671875 130.292969 472.515625 C 110.832031 470.015625 91.351562 465.632812 71.882812 460.15625 L 64.601562 457.992188 C 63.382812 457.632812 62.15625 457.289062 60.941406 456.917969 L 57.308594 455.753906 L 50 453.453125 L 42.714844 450.996094 L 39.054688 449.769531 C 37.828125 449.378906 36.636719 448.90625 35.414062 448.492188 L 28.097656 445.917969 C 25.621094 445.113281 23.226562 444.144531 20.769531 443.277344 C 18.320312 442.390625 15.859375 441.515625 13.363281 440.679688 C 15.335938 442.402344 17.34375 444.078125 19.359375 445.75 C 20.363281 446.59375 21.382812 447.414062 22.398438 448.238281 C 23.414062 449.078125 24.453125 449.871094 25.492188 450.671875 C 29.683594 453.792969 33.851562 457.023438 38.230469 459.910156 C 40.398438 461.386719 42.566406 462.890625 44.765625 464.339844 C 46.988281 465.742188 49.230469 467.128906 51.472656 468.515625 L 54.847656 470.585938 C 55.988281 471.257812 57.136719 471.894531 58.285156 472.554688 L 65.207031 476.445312 C 67.542969 477.691406 69.917969 478.867188 72.277344 480.085938 L 75.835938 481.886719 C 77.03125 482.46875 78.242188 483.011719 79.449219 483.578125 C 81.863281 484.707031 84.292969 485.796875 86.722656 486.90625 C 89.179688 487.9375 91.652344 488.957031 94.132812 489.960938 C 95.375 490.460938 96.601562 491 97.859375 491.457031 L 101.636719 492.839844 L 105.425781 494.214844 L 107.320312 494.894531 C 107.957031 495.125 108.597656 495.320312 109.238281 495.527344 L 116.945312 497.96875 C 118.226562 498.398438 119.539062 498.71875 120.839844 499.082031 L 124.757812 500.148438 C 135.222656 502.894531 145.914062 505.113281 156.789062 506.441406 C 158.144531 506.648438 159.511719 506.765625 160.875 506.902344 L 164.972656 507.3125 C 167.699219 507.632812 170.449219 507.738281 173.199219 507.898438 L 177.328125 508.125 C 178.707031 508.171875 180.085938 508.1875 181.46875 508.203125 C 184.230469 508.222656 186.992188 508.316406 189.761719 508.195312 C 202.171875 507.976562 214.644531 506.652344 226.933594 504.191406 C 220.082031 509.507812 213.097656 514.757812 206.003906 519.960938 C 195.988281 527.292969 185.761719 534.542969 175.355469 541.75 C 164.949219 548.980469 154.398438 556.164062 143.625 563.523438 C 145.265625 563.460938 146.886719 563.3125 148.519531 563.183594 C 150.144531 563.027344 151.765625 562.851562 153.390625 562.671875 C 156.636719 562.3125 159.863281 561.851562 163.085938 561.355469 C 169.527344 560.355469 175.925781 559.125 182.292969 557.738281 C 195.015625 554.921875 207.601562 551.417969 220.023438 547.265625 C 244.847656 538.925781 269.078125 528.0625 292.121094 514.046875 C 294.988281 512.28125 297.859375 510.488281 300.699219 508.636719 C 303.535156 506.773438 306.339844 504.855469 309.132812 502.886719 C 314.738281 498.984375 320.171875 494.765625 325.554688 490.390625 C 336.226562 481.539062 346.46875 471.753906 355.777344 460.683594 C 358.089844 457.90625 360.390625 455.09375 362.59375 452.167969 C 364.796875 449.25 366.929688 446.246094 368.980469 443.160156 C 373.132812 437.023438 376.914062 430.519531 380.316406 423.71875 C 382.015625 420.320312 383.628906 416.851562 385.09375 413.296875 C 386.546875 409.738281 387.914062 406.113281 389.144531 402.433594 C 391.628906 395.0625 393.515625 387.429688 394.835938 379.664062 C 395.1875 377.730469 395.445312 375.777344 395.730469 373.824219 C 395.863281 372.851562 395.957031 371.871094 396.070312 370.886719 C 396.179688 369.910156 396.277344 368.929688 396.351562 367.941406 L 396.363281 367.863281 C 396.882812 362.1875 398.832031 356.730469 402.140625 352.082031 C 402.550781 351.515625 402.960938 350.941406 403.375 350.371094 C 410.636719 340.316406 418.320312 330.792969 426.457031 321.773438 C 442.785156 303.765625 460.847656 287.773438 481.535156 274.121094 C 491.902344 267.292969 502.980469 261.199219 515.179688 255.921875 C 516.707031 255.257812 518.257812 254.617188 519.816406 253.914062 C 521.378906 253.265625 522.964844 252.761719 524.566406 252.117188 L 526.992188 251.191406 C 527.808594 250.886719 528.625 250.527344 529.445312 250.300781 C 531.09375 249.785156 532.761719 249.222656 534.457031 248.664062 L 537.027344 247.792969 C 537.886719 247.535156 538.746094 247.328125 539.617188 247.070312 C 541.363281 246.589844 543.132812 246.078125 544.941406 245.554688 C 546.761719 244.925781 548.558594 244.664062 550.425781 244.160156 C 552.292969 243.703125 554.1875 243.230469 556.140625 242.671875 C 554.589844 241.457031 552.96875 240.328125 551.320312 239.21875 Z M 446.027344 165.78125 C 446.027344 195.585938 421.84375 219.746094 392.011719 219.746094 C 362.175781 219.746094 337.996094 195.585938 337.996094 165.78125 C 337.996094 135.984375 362.175781 111.824219 392.011719 111.824219 C 421.84375 111.824219 446.027344 135.984375 446.027344 165.78125 " fill-opacity="1" fill-rule="nonzero"/></g></svg>